<?xml version="1.0" encoding="UTF-8"?>
<!-- Created with Inkscape (http://www.inkscape.org/) -->
<svg width="80.597mm" height="68.603mm" version="1.1" viewBox="0 0 80.597 68.603" xmlns="http://www.w3.org/2000/svg">
 <g transform="matrix(.035278 0 0 -.035278 -24.981 201.23)" clip-path="url(#clipPath3313)">
  <path d="m2744.2 4919.6c37.36-87.89 56.31-180.27 56.31-274.58 0-440.58-416.05-799.03-927.45-799.03-511.39 0-927.44 358.45-927.44 799.03 0 62.84 8.734 125.95 25.961 187.57l8.441 30.2-26.09 17.39c-99.805 66.52-159.39 177.69-159.39 297.38 0 196.93 160.21 357.14 357.14 357.14 113.62 0 221.53-54.93 288.66-146.94l19.62-26.89 31 12.11c120.76 47.16 249.31 71.08 382.1 71.08 104.45 0 207.4-15.07 306.01-44.79l34.72-10.47 16.33 32.38c61.16 121.27 183.4 196.61 319 196.61 196.93 0 357.14-160.21 357.14-357.14 0-113.96-55.2-222.07-147.68-289.18l-27.85-20.21zm248.48 341.05c0 244.58-198.98 443.56-443.56 443.56-156.35 0-298.38-80.62-378.69-212.65-96.4 25.84-196.25 38.91-297.37 38.91-132.63 0-261.46-22.1-383.45-65.74-83.88 98.48-207.89 156.39-337.93 156.39-244.57 0-443.56-198.98-443.56-443.56 0-138.25 63.981-267.33 172.6-351.14-14.293-59.81-21.523-120.69-21.523-181.4 0-488.24 454.82-885.44 1013.9-885.44s1013.9 397.2 1013.9 885.44c0 95.01-17.08 188.21-50.82 277.56 98.61 83.88 156.58 207.89 156.58 338.07" fill="#2a1512"/>
  <path d="m1543.8 5177.5c0-221.1-179.24-400.35-400.35-400.35-221.1 0-400.34 179.25-400.34 400.35 0 221.11 179.24 400.35 400.34 400.35 221.11 0 400.35-179.24 400.35-400.35" fill="#90391d"/>
  <path d="m2941.2 5260.6c0-221.1-179.24-400.34-400.35-400.34-221.1 0-400.35 179.24-400.35 400.34 0 221.11 179.25 400.35 400.35 400.35 221.11 0 400.35-179.24 400.35-400.35" fill="#90391d"/>
  <path d="m2689.9 5212.6c0-145.68-118.1-263.77-263.78-263.77s-263.77 118.09-263.77 263.77 118.09 263.77 263.77 263.77 263.78-118.09 263.78-263.77" fill="#2a1512"/>
  <path d="m2649.5 5225.7c0-125.15-101.46-226.61-226.61-226.61-125.16 0-226.62 101.46-226.62 226.61 0 125.16 101.46 226.62 226.62 226.62 125.15 0 226.61-101.46 226.61-226.62" fill="#fbd097"/>
  <path d="m1504.4 5140.3c0-145.68-118.09-263.78-263.77-263.78s-263.77 118.1-263.77 263.78 118.09 263.77 263.77 263.77 263.77-118.09 263.77-263.77" fill="#2a1512"/>
  <path d="m1472.5 5150.2c0-125.15-101.46-226.61-226.62-226.61-125.15 0-226.61 101.46-226.61 226.61s101.46 226.61 226.61 226.61c125.16 0 226.62-101.46 226.62-226.61" fill="#fbd097"/>
  <path d="m2835.4 4645c0-465.15-434.58-842.24-970.65-842.24-536.08 0-970.66 377.09-970.66 842.24 0 465.16 434.58 842.24 970.66 842.24 536.07 0 970.65-377.08 970.65-842.24" fill="#90391d"/>
  <path d="m2723.4 5038.1c18.36-67.96 28.1-138.79 28.1-211.6 0-510.19-476.65-923.78-1064.6-923.78-143.96 0-281.21 24.85-406.46 69.78 162.57-106.54 364.97-169.75 584.41-169.75 536.07 0 970.65 377.09 970.65 842.24 0 142-40.56 275.75-112.08 393.11" fill="#80331a"/>
  <g fill="#2a1512">
   <path d="m1904.3 4531.6c132.28 11.31 253.54-31.36 355.5-74.52-92.04 79.18-222.83 123.29-363.78 111.24s-262.36-77.74-339.61-171.4c93.16 59.84 215.61 123.37 347.89 134.68"/>
   <path d="m2287 4743.8c0-60.49-30.44-109.53-67.99-109.53-37.54 0-67.98 49.04-67.98 109.53s30.44 109.53 67.98 109.53c37.55 0 67.99-49.04 67.99-109.53"/>
   <path d="m1588.8 4696.9c0-60.49-30.44-109.52-67.99-109.52-37.54 0-67.98 49.03-67.98 109.52s30.44 109.53 67.98 109.53c37.55 0 67.99-49.04 67.99-109.53"/>
   <path d="m1915.5 4256.1c-126.85-12.56-236.01 41.07-243.81 119.81s88.71 152.75 215.57 165.32c126.85 12.57 236.01-41.07 243.81-119.81s-88.72-152.75-215.57-165.32"/>
  </g>
  <path d="m1728.2 4390.5c2.26 64.79 147.84 125.44 147.84 125.44 10.36 4.32 9.9 5.7-1.01 3.07 0 0-162.28-39.06-164.44-100.9-0.7-19.8 10.33-37.87 10.33-37.87 5.84-9.58 8.97-9.2 6.95 0.84l0.33 9.42" fill="#fbd097"/>
  <path d="m1864.8 4380.7c31.51-30.38 52.59-85.84 52.41-149.37-0.26-95.94-48.75-173.58-108.3-173.42-16.03 0.05-31.18 5.88-44.83 16.03-6.91-7.77-14.48-14.99-22.48-21.84 19.57-22.85 43.57-36.49 69.62-36.57 66.01-0.18 119.76 85.89 120.05 192.24 0.21 75.92-26.94 141.46-66.47 172.93" fill="#2a1512"/>
  <path d="m1989.5 4446.6c-32.77-31.59-54.7-89.28-54.52-155.35 0.28-99.78 50.71-180.53 112.64-180.36 16.68 0.05 32.43 6.11 46.63 16.67 7.19-8.08 15.06-15.59 23.38-22.71-20.36-23.77-45.32-37.96-72.41-38.04-68.65-0.18-124.56 89.33-124.86 199.94-0.22 78.96 28.02 147.12 69.14 179.85" fill="#2a1512"/>
 </g>
</svg>
